<svg xmlns="http://www.w3.org/2000/svg" viewBox="0 0 256 256" xml:space="preserve"><path d="M120 14.8c-6.3 1-10.8 2.5-16.6 5.3-6.8 3.3-11.7 6.9-16.9 12.4l-3.9 4.2-4.2-.8c-24-4.9-47.7 5.9-60.7 27.8-6 10-8.8 23.3-7.4 34.2 3.1 23.3 18.6 41.5 41.3 48.6 3 .9 6 2.2 7.2 3 2.4 1.7 4.4 4.8 5.1 7.7.3 1.2 1.2 10.1 2.1 19.7 4.1 44 3.7 40.9 5 43.5 4.9 9.8 24.1 18.5 46 20.8 28 3 61-7.1 68-20.8 1.3-2.6 1.1-.4 5-43.3.9-9.8 1.8-18.7 2.1-19.9.6-2.9 2.7-6 5.1-7.7 1.1-.8 4.1-2.1 7.1-3 10.3-3.2 18.3-8.1 25.6-15.7 22.7-23.7 21.1-59.6-3.6-81.5-13.7-12.2-31-16.9-48.7-13.3l-4.1.8-4.3-4.5c-8.7-8.9-18.5-14.3-30.4-16.8-4.9-1.2-14.2-1.5-18.8-.7zm20.7 9.1c10.5 2.8 19.7 9.2 26.4 18.1 1.7 2.2 3.3 4.1 3.6 4.1.3 0 1.8-.4 3.2-.9 6.6-2.3 16.6-3 23.8-1.7 20.1 3.6 35.6 19.1 39.4 39.2.9 4.7.9 13.5 0 18.2-3.5 18.3-16.4 32.4-34.5 37.7-5.1 1.5-6.5 2.2-9.5 4.4-4 3-7 7.2-8.5 11.8-.4 1.4-1.6 10.9-2.8 23.9-1.8 18.6-2.2 21.7-2.9 22.2-1.7 1.2-11.6 5.4-17.5 7.4-10.9 3.6-21.4 5.3-33.4 5.3s-22.7-1.7-33.5-5.3c-6-2-17.5-7-18-7.7-.1-.2-1.2-10.1-2.3-22-1.2-13-2.4-22.5-2.8-23.8-1.4-4.5-4.6-8.9-8.5-11.8-2.9-2.1-4.8-3-9.6-4.4-8.1-2.4-15.2-6.5-21.1-12.4-7.3-7.3-11.9-16.2-13.6-26.7-.9-5.4-.4-15.7 1.1-20.6 4.6-16.2 16-28.2 31.6-33.5C61 42 73 42 82.2 45.1c1.4.5 2.9.9 3.2.9.3 0 1.9-1.8 3.5-4 7.6-10.3 19.1-17.3 31.6-19.2.8-.1 4.8-.2 9-.1 5.9.2 8.3.4 11.2 1.2zM82.5 212.3c9.6 4.1 21.3 7.2 32.2 8.7 5.7.7 21.2.7 26.8 0 11-1.5 22.6-4.6 32.2-8.7 2.6-1.2 4.9-2 4.9-1.9.5.5-.7 6.5-1.6 7.7-4.1 5.7-20.2 12.3-35.8 14.6-6.6 1-19.6 1-26.2 0-17.1-2.5-34.9-10.3-36.6-16.1-.6-1.7-1.1-6.3-.7-6.3 0-.1 2.2.8 4.8 2z"/><path d="M121.2 32.7c-5.9 1.2-14.4 5-16.5 7.5-2.3 2.7-.6 6.3 2.9 6.3.9 0 2.2-.4 2.8-.9 3.8-2.7 10.2-4.9 15.4-5.4 6.2-.6 13.5 1.3 18.8 4.9 3.1 2.1 6 1.9 7.2-.5 1.6-3.1.2-4.9-6.3-8.2-6.4-3.2-10.7-4.2-17.2-4.2-2.8.1-6 .2-7.1.5zM68.1 55.2c-5 .6-9.2 1.8-13.6 3.9C47.7 62.3 43.4 66 39 72.5c-1.8 2.7-4.6 9.2-4.6 10.9 0 1.6 1.6 3.5 3.2 3.9 2.3.5 4-.7 4.9-3.6 1.4-4.2 3.9-8.3 7.3-11.7 5.6-5.6 12.2-8.2 22-8.9 4.8-.3 5.3-.5 6.3-1.6 1.4-1.6 1.3-3.6 0-5.2-.9-1.1-1.4-1.3-4-1.4-1.7 0-4.4.1-6 .3zM84.6 153.9c-.7.7-1.3 1.8-1.3 2.4 0 1.6 4.1 34 4.4 34.8.1.4.7 1 1.3 1.4 2.8 1.8 6.2 0 6.2-3.2 0-1.5-3.3-29.2-4-32.9-.5-3.7-4.1-5-6.6-2.5zM166.1 153.7c-.6.6-1.2 1.8-1.3 2.6-.6 3.6-4 31.4-4 32.9 0 3.6 4.1 5.3 6.6 2.8.6-.7 1.2-1.4 1.2-1.6 0-.2.9-7.7 2.1-16.7 1.2-9 2.1-16.8 2.1-17.4s-.6-1.7-1.3-2.4c-1.8-1.7-3.8-1.8-5.4-.2zM113 162l-1.2 1.1V199l1.2 1.1c1.6 1.5 4 1.5 5.5 0l1.2-1.1v-35.8l-1.2-1.1c-.7-.8-1.6-1.2-2.8-1.2-1 0-1.9.3-2.7 1.1zM137.5 162l-1.2 1.1V199l1.2 1.1c1.7 1.6 4.2 1.5 5.6-.2l1.1-1.2v-35.6L143 162c-.7-.8-1.6-1.2-2.8-1.2-1.1.1-2 .4-2.7 1.2z"/></svg>