<svg aria-hidden="true" style="width:0;height:0;position:absolute;overflow:hidden" xmlns="http://www.w3.org/2000/svg"><defs><symbol id="icon-arrow-up" viewBox="0 0 32 32"><path d="M9.776 10.246A1.333 1.333 0 1 1 7.89 8.36l6.221-6.221a2.667 2.667 0 0 1 3.771 0l6.225 6.225a1.333 1.333 0 1 1-1.886 1.886l-4.888-4.888v23.971a1.333 1.333 0 0 1-2.666 0V5.355l-4.891 4.891z"/></symbol><symbol id="icon-arrow-left" viewBox="0 0 32 32"><path d="M18.776 23.63a1.212 1.212 0 0 1-1.715 0l-5.926-5.932a2.425 2.425 0 0 1 .001-3.429l5.929-5.929a1.214 1.214 0 0 1 1.715 1.715l-5.075 5.075a1.214 1.214 0 0 0 0 1.715l5.071 5.071a1.212 1.212 0 0 1 0 1.715z"/></symbol><symbol id="icon-arrow-right" viewBox="0 0 32 32"><path d="M13.224 23.63a1.212 1.212 0 0 0 1.715 0l5.926-5.932a2.425 2.425 0 0 0-.001-3.429L14.935 8.34a1.214 1.214 0 0 0-1.715 1.715l5.075 5.075a1.214 1.214 0 0 1 0 1.715l-5.071 5.071a1.212 1.212 0 0 0 0 1.715z"/></symbol><symbol id="icon-double-arrow-right" viewBox="0 0 32 32"><path d="M16.391 9.724a1.332 1.332 0 0 1 1.886 0l5.333 5.333a1.332 1.332 0 0 1 0 1.886l-5.333 5.333a1.333 1.333 0 0 1-1.884-1.886l4.39-4.39-4.391-4.391a1.332 1.332 0 0 1 0-1.886z"/><path d="M8.391 9.724a1.332 1.332 0 0 1 1.886 0l5.333 5.333a1.332 1.332 0 0 1 0 1.886l-5.333 5.333a1.333 1.333 0 0 1-1.884-1.886l4.39-4.39-4.391-4.391a1.332 1.332 0 0 1 0-1.886z"/></symbol><symbol id="icon-double-arrow-left" viewBox="0 0 32 32"><path d="M15.609 22.276a1.332 1.332 0 0 1-1.886 0L8.39 16.943a1.332 1.332 0 0 1 0-1.886l5.333-5.333a1.333 1.333 0 0 1 1.884 1.886L11.217 16l4.391 4.391a1.332 1.332 0 0 1 0 1.886z"/><path d="M23.609 22.276a1.332 1.332 0 0 1-1.886 0l-5.333-5.333a1.332 1.332 0 0 1 0-1.886l5.333-5.333a1.333 1.333 0 0 1 1.884 1.886L19.217 16l4.391 4.391a1.332 1.332 0 0 1 0 1.886z"/></symbol><symbol id="icon-close" viewBox="0 0 32 32"><path d="M27.661 4.438a1.333 1.333 0 0 0-1.886 0l-9.726 9.726-9.726-9.726a1.333 1.333 0 1 0-1.886 1.886l9.726 9.726-9.726 9.726a1.333 1.333 0 1 0 1.886 1.886l9.726-9.726 9.726 9.726a1.333 1.333 0 1 0 1.886-1.886l-9.726-9.726 9.726-9.726a1.333 1.333 0 0 0 0-1.886z"/></symbol><symbol id="icon-basket" viewBox="0 0 32 32"><path d="m28.04 14.111-19.338-.003-.811-2.79a1.258 1.258 0 0 0-.874-.858L4.18 9.693a1.25 1.25 0 0 0-1.41 1.83c.166.29.435.497.757.584l2.159.584 4.382 15.807a1.847 1.847 0 0 0 .819 3.505 1.85 1.85 0 0 0 1.848-1.848l-.001-.072h8.921l-.001.072c0 1.019.829 1.848 1.848 1.848s1.848-.829 1.848-1.848c0-.937-.712-1.722-1.623-1.834-2.217-.358-11.267-.796-11.267-.796l-.297-1.163h11.291c.577 0 1.091-.388 1.248-.943l2.44-8.596h.897a1.355 1.355 0 0 0 0-2.71zm-14.382 9.372h-2.117c-.058-.001-.143.012-.182-.124l-.118-.41-1.659-5.843c-.008-.028-.002-.06.016-.083s.046-.038.076-.038h2.572c.045 0 .083.031.093.074l1.403 6.282.005.019a.095.095 0 0 1-.09.123zM19.06 17.1l-1.143 6.309a.094.094 0 0 1-.093.074h-1.596a.095.095 0 0 1-.093-.074L14.992 17.1c-.006-.028 0-.057.019-.08s.045-.036.074-.036h3.883a.097.097 0 0 1 .093.116zm5.408.005-1.791 6.309a.095.095 0 0 1-.091.069h-2.19a.097.097 0 0 1-.093-.116l1.409-6.309a.096.096 0 0 1 .093-.074h2.572a.096.096 0 0 1 .092.121z"/><path d="M16.869 12.384a.699.699 0 0 0 1.199-.001l3.31-4.976a.7.7 0 0 0-.032-.744c-.145-.207-.369-.295-.615-.294h-.728l-1.149.001V1.388a1.39 1.39 0 0 0-2.778 0v4.984l-1.926.001a.7.7 0 0 0-.599 1.039l3.317 4.972z"/></symbol><symbol id="icon-lines" viewBox="0 0 32 32"><path stroke-linejoin="round" stroke-linecap="round" stroke-width="2" d="M28 13.333H4M28 8H4M28 18.667H4M28 24H4"/></symbol><symbol id="arrow-up-short" viewBox="0 0 16 16"><path fill-rule="evenodd" d="M8 12a.5.5 0 0 0 .5-.5V5.707l2.146 2.147a.5.5 0 0 0 .708-.708l-3-3a.5.5 0 0 0-.708 0l-3 3a.5.5 0 1 0 .708.708L7.5 5.707V11.5a.5.5 0 0 0 .5.5z"/></symbol><symbol id="icon-linkedin" viewBox="0 0 32 32"><path fill="#f4f4fd" style="fill:var(--color4,#f4f4fd)" d="M31.992 32H32V20.26c0-5.74-1.236-10.164-7.948-10.164-3.226 0-5.392 1.772-6.276 3.45h-.094v-2.912H11.32V32h6.628V21.42c0-2.784.528-5.476 3.976-5.476 3.4 0 3.45 3.178 3.45 5.656V32h6.62zM.528 10.636h6.634V32H.528V10.636zM3.842 0C1.722 0 .002 1.72.002 3.84s1.72 3.88 3.84 3.88c2.122 0 3.844-1.76 3.844-3.88S5.96 0 3.84 0z"/></symbol><symbol id="icon-youtube" viewBox="0 0 32 32"><path fill="#f4f4fd" style="fill:var(--color4,#f4f4fd)" d="M31.681 9.6s-.313-2.206-1.275-3.175C29.187 5.15 27.825 5.144 27.2 5.069c-4.475-.325-11.194-.325-11.194-.325h-.012s-6.719 0-11.194.325c-.625.075-1.987.081-3.206 1.356C.631 7.394.325 9.6.325 9.6s-.319 2.588-.319 5.181v2.425c0 2.587.319 5.181.319 5.181s.313 2.206 1.269 3.175c1.219 1.275 2.819 1.231 3.531 1.369 2.563.244 10.881.319 10.881.319s6.725-.012 11.2-.331c.625-.075 1.988-.081 3.206-1.356.962-.969 1.275-3.175 1.275-3.175s.319-2.587.319-5.181v-2.425c-.006-2.588-.325-5.181-.325-5.181zM12.694 20.15v-8.994l8.644 4.513-8.644 4.481z"/></symbol><symbol id="icon-facebook" viewBox="0 0 32 32"><path fill="#f4f4fd" style="fill:var(--color4,#f4f4fd)" d="M21.33 5.314h2.92V.226A36.551 36.551 0 0 0 20.125 0h-.138.007C15.782 0 12.9 2.65 12.9 7.52V12H8.25v5.688h4.648V32h5.698V17.69h4.46l.708-5.69h-5.17V8.08c.002-1.644.444-2.768 2.736-2.768z"/></symbol><symbol id="icon-instagram" viewBox="0 0 32 32"><path fill="#f4f4fd" style="fill:var(--color4,#f4f4fd)" d="M31.968 9.408c-.074-1.7-.35-2.87-.744-3.882a7.844 7.844 0 0 0-1.849-2.839l-.001-.001A7.898 7.898 0 0 0 26.596.862l-.054-.018c-1.02-.394-2.18-.67-3.88-.744C20.946.02 20.4 0 16.06 0c-4.346 0-4.89.02-6.596.094-1.7.074-2.868.35-3.88.744a7.844 7.844 0 0 0-2.839 1.849l-.001.001A7.89 7.89 0 0 0 .918 5.466L.9 5.52C.506 6.54.232 7.7.156 9.4c-.08 1.714-.1 2.26-.1 6.602 0 4.346.02 4.89.094 6.596.074 1.7.35 2.87.744 3.882a7.886 7.886 0 0 0 1.85 2.838c.8.812 1.77 1.444 2.832 1.844 1.02.394 2.18.67 3.882.744 1.706.076 2.25.094 6.596.094 4.344 0 4.888-.02 6.594-.094 1.7-.074 2.87-.35 3.882-.744a8.233 8.233 0 0 0 4.663-4.627l.019-.055c.394-1.02.67-2.18.744-3.882.076-1.706.094-2.25.094-6.596 0-4.344-.006-4.888-.08-6.594zm-2.88 13.064c-.07 1.564-.332 2.408-.552 2.97a5.34 5.34 0 0 1-3.002 3.027l-.036.013c-.562.218-1.412.48-2.968.548-1.688.076-2.194.094-6.464.094s-4.782-.02-6.464-.094c-1.564-.068-2.408-.33-2.97-.55a4.947 4.947 0 0 1-1.837-1.193l-.001-.001a5.001 5.001 0 0 1-1.183-1.804l-.011-.034c-.22-.562-.48-1.412-.55-2.968-.074-1.688-.094-2.196-.094-6.464 0-4.27.02-4.782.094-6.464.07-1.564.332-2.408.55-2.97a4.888 4.888 0 0 1 1.2-1.838A4.96 4.96 0 0 1 6.64 3.55c.56-.22 1.412-.48 2.968-.55 1.688-.074 2.194-.094 6.464-.094 4.276 0 4.78.02 6.464.094 1.562.07 2.406.332 2.968.55a4.929 4.929 0 0 1 1.84 1.194 4.98 4.98 0 0 1 1.192 1.84c.22.56.482 1.41.55 2.968.076 1.688.094 2.194.094 6.464s-.018 4.77-.092 6.456z"/><path fill="#f4f4fd" style="fill:var(--color4,#f4f4fd)" d="M16.06 7.782a8.222 8.222 0 0 0-.01 16.44h.009a8.222 8.222 0 0 0 .01-16.44h-.009zm0 13.554a5.334 5.334 0 1 1 0-10.668 5.334 5.334 0 1 1 0 10.668zM26.524 7.458a1.92 1.92 0 0 1-3.84 0 1.92 1.92 0 0 1 3.84 0z"/></symbol><symbol id="icon-favourites-chefs-hat" viewBox="0 0 38 32"><path fill="#9bb537" style="fill:var(--color1,#9bb537)" d="M7.188 12.688h23.156v17.656H7.188V12.688z"/><path fill="#9bb537" style="fill:var(--color1,#9bb537)" d="M16.563 11.594a8.281 8.281 0 1 1-16.562 0 8.281 8.281 0 1 1 16.562 0z"/><path fill="#9bb537" style="fill:var(--color1,#9bb537)" d="M27.031 8.281a8.281 8.281 0 1 1-16.562 0 8.281 8.281 0 1 1 16.562 0z"/><path fill="#9bb537" style="fill:var(--color1,#9bb537)" d="M37.531 11.594a8.281 8.281 0 1 1-16.562 0 8.281 8.281 0 1 1 16.562 0z"/><path fill="#f8f8f8" style="fill:var(--color2,#f8f8f8)" d="M14.344 10.469c0-.594.375-1.094.844-1.094s.813.5.813 1.094v5c0 .594-.375 1.094-.813 1.094s-.844-.5-.844-1.094v-5zm2.75 0c0-.594.625-1.094 1.375-1.094s1.406.5 1.406 1.094v5c0 .594-.625 1.094-1.406 1.094s-1.375-.5-1.375-1.094v-5zm3.875 0c0-.594.5-1.094 1.094-1.094s1.125.5 1.125 1.094v5c0 .594-.5 1.094-1.125 1.094s-1.094-.5-1.094-1.094v-5z"/><path fill="#050505" style="fill:var(--color3,#050505)" d="m28.188 3.125.875-.031c3.719 0 6.875 2.406 7.938 5.75l-.875.031c-3.719 0-6.875-2.406-7.938-5.75z"/></symbol><symbol id="search" viewBox="0 0 32 32"><path d="M30.565 28.436 25 22.916a13.5 13.5 0 1 0-2.086 2.086l5.52 5.52a1.483 1.483 0 0 0 1.065.443 1.504 1.504 0 0 0 1.065-.443 1.503 1.503 0 0 0 0-2.085zM14.5 25.001a10.494 10.494 0 0 1-9.7-6.482A10.5 10.5 0 1 1 14.501 25z"/></symbol><symbol id="icon-x" viewBox="0 0 32 32"><path d="M18.828 16 31.414 3.414A2 2 0 1 0 28.586.586L16 13.172 3.414.586A2 2 0 1 0 .586 3.414L13.172 16 .586 28.586a2 2 0 1 0 2.828 2.828L16 18.828l12.586 12.586a2 2 0 1 0 2.828-2.828z"/></symbol></defs></svg>