<!-- Generated by IcoMoon.io -->
<svg version="1.1" xmlns="http://www.w3.org/2000/svg" width="1201" height="1024" viewBox="0 0 1201 1024">
<title></title>
<g id="icomoon-ignore">
</g>
<path fill="#9bb537" d="M229.517 406.069h741.517v564.966h-741.517v-564.966z"></path>
<path fill="#9bb537" d="M529.655 370.759c0 146.261-118.567 264.828-264.828 264.828s-264.828-118.567-264.828-264.828c0-146.261 118.567-264.828 264.828-264.828s264.828 118.567 264.828 264.828z"></path>
<path fill="#9bb537" d="M865.103 264.828c0 146.261-118.567 264.828-264.828 264.828s-264.828-118.567-264.828-264.828c0-146.26 118.567-264.828 264.828-264.828s264.828 118.567 264.828 264.828z"></path>
<path fill="#9bb537" d="M1200.552 370.759c0 146.261-118.567 264.828-264.828 264.828s-264.828-118.567-264.828-264.828c0-146.261 118.567-264.828 264.828-264.828s264.828 118.567 264.828 264.828z"></path>
<path fill="#f8f8f8" d="M459.034 334.813c0-19.151 11.857-34.675 26.483-34.675s26.483 15.524 26.483 34.675v160.168c0 19.151-11.857 34.675-26.483 34.675s-26.483-15.524-26.483-34.675v-160.168z"></path>
<path fill="#f8f8f8" d="M547.31 334.813c0-19.151 19.761-34.675 44.138-34.675s44.138 15.524 44.138 34.675v160.168c0 19.151-19.761 34.675-44.138 34.675s-44.138-15.524-44.138-34.675v-160.168z"></path>
<path fill="#f8f8f8" d="M670.897 334.813c0-19.151 15.808-34.675 35.31-34.675s35.31 15.524 35.31 34.675v160.168c0 19.151-15.808 34.675-35.31 34.675s-35.31-15.524-35.31-34.675v-160.168z"></path>
<path fill="#050505" d="M901.897 100.193c9.232-0.96 18.603-1.452 28.089-1.452 118.849 0 219.544 77.203 254.023 183.87-9.232 0.96-18.603 1.453-28.091 1.453-118.848 0-219.542-77.203-254.021-183.872z"></path>
</svg>
