<svg aria-hidden="true" style="position: absolute; width: 0; height: 0; overflow: hidden;" version="1.1" xmlns="http://www.w3.org/2000/svg" xmlns:xlink="http://www.w3.org/1999/xlink">
<defs>
<symbol id="icon-arrow-up" viewBox="0 0 32 32">
<path d="M9.776 10.246c-0.521 0.521-1.365 0.521-1.886 0s-0.521-1.365 0-1.886l6.221-6.221c1.041-1.041 2.73-1.041 3.771 0l6.225 6.225c0.521 0.521 0.521 1.365 0 1.886s-1.365 0.521-1.886 0l-4.888-4.888v23.971c0 0.736-0.597 1.333-1.333 1.333s-1.333-0.597-1.333-1.333v-23.978l-4.891 4.891z"></path>
</symbol>
<symbol id="icon-arrow-left" viewBox="0 0 32 32">
<path d="M18.776 23.63c-0.473 0.474-1.241 0.474-1.715 0l-5.926-5.932c-0.946-0.947-0.946-2.482 0.001-3.429l5.929-5.929c0.474-0.473 1.241-0.473 1.715 0s0.473 1.241 0 1.715l-5.075 5.075c-0.473 0.473-0.473 1.241 0 1.715l5.071 5.071c0.474 0.473 0.474 1.241 0 1.715z"></path>
</symbol>
<symbol id="icon-arrow-right" viewBox="0 0 32 32">
<path d="M13.224 23.63c0.473 0.474 1.241 0.474 1.715 0l5.926-5.932c0.946-0.947 0.946-2.482-0.001-3.429l-5.929-5.929c-0.474-0.473-1.241-0.473-1.715 0s-0.473 1.241 0 1.715l5.075 5.075c0.473 0.473 0.473 1.241 0 1.715l-5.071 5.071c-0.474 0.473-0.474 1.241 0 1.715z"></path>
</symbol>
<symbol id="icon-double-arrow-right" viewBox="0 0 32 32">
<path d="M16.391 9.724c0.241-0.241 0.575-0.39 0.943-0.39s0.701 0.149 0.943 0.39l5.333 5.333c0.241 0.241 0.39 0.575 0.39 0.943s-0.149 0.701-0.39 0.943l-5.333 5.333c-0.24 0.232-0.566 0.374-0.926 0.374-0.736 0-1.333-0.597-1.333-1.333 0-0.36 0.143-0.687 0.375-0.927l4.39-4.39-4.391-4.391c-0.241-0.241-0.39-0.575-0.39-0.943s0.149-0.701 0.39-0.943v0z"></path>
<path d="M8.391 9.724c0.241-0.241 0.575-0.39 0.943-0.39s0.701 0.149 0.943 0.39l5.333 5.333c0.241 0.241 0.39 0.575 0.39 0.943s-0.149 0.701-0.39 0.943l-5.333 5.333c-0.24 0.232-0.566 0.374-0.926 0.374-0.736 0-1.333-0.597-1.333-1.333 0-0.36 0.143-0.687 0.375-0.927l4.39-4.39-4.391-4.391c-0.241-0.241-0.39-0.575-0.39-0.943s0.149-0.701 0.39-0.943v0z"></path>
</symbol>
<symbol id="icon-double-arrow-left" viewBox="0 0 32 32">
<path d="M15.609 22.276c-0.241 0.241-0.575 0.39-0.943 0.39s-0.701-0.149-0.943-0.39l-5.333-5.333c-0.241-0.241-0.39-0.575-0.39-0.943s0.149-0.701 0.39-0.943l5.333-5.333c0.24-0.232 0.566-0.374 0.926-0.374 0.736 0 1.333 0.597 1.333 1.333 0 0.36-0.143 0.687-0.375 0.927l-4.39 4.39 4.391 4.391c0.241 0.241 0.39 0.575 0.39 0.943s-0.149 0.701-0.39 0.943v0z"></path>
<path d="M23.609 22.276c-0.241 0.241-0.575 0.39-0.943 0.39s-0.701-0.149-0.943-0.39l-5.333-5.333c-0.241-0.241-0.39-0.575-0.39-0.943s0.149-0.701 0.39-0.943l5.333-5.333c0.24-0.232 0.566-0.374 0.926-0.374 0.736 0 1.333 0.597 1.333 1.333 0 0.36-0.143 0.687-0.375 0.927l-4.39 4.39 4.391 4.391c0.241 0.241 0.39 0.575 0.39 0.943s-0.149 0.701-0.39 0.943v0z"></path>
</symbol>
<symbol id="icon-close" viewBox="0 0 32 32">
<path d="M27.661 4.438c-0.521-0.521-1.365-0.521-1.886 0l-9.726 9.726-9.726-9.726c-0.521-0.521-1.365-0.521-1.886 0s-0.521 1.365 0 1.886l9.726 9.726-9.726 9.726c-0.521 0.521-0.521 1.365 0 1.886s1.365 0.521 1.886 0l9.726-9.726 9.726 9.726c0.521 0.521 1.365 0.521 1.886 0s0.521-1.365 0-1.886l-9.726-9.726 9.726-9.726c0.521-0.521 0.521-1.365 0-1.886z"></path>
</symbol>
<symbol id="icon-basket" viewBox="0 0 32 32">
<path d="M28.040 14.111l-19.338-0.003-0.811-2.79c-0.121-0.416-0.456-0.745-0.874-0.858l-2.837-0.767c-0.107-0.029-0.217-0.043-0.327-0.043-0.563 0-1.059 0.38-1.206 0.924-0.087 0.322-0.043 0.659 0.123 0.949s0.435 0.497 0.757 0.584l2.159 0.584 4.382 15.807c-0.624 0.308-1.029 0.946-1.029 1.657 0 1.019 0.829 1.848 1.848 1.848s1.848-0.829 1.848-1.848c0-0.024-0-0.048-0.001-0.072h8.921c-0.001 0.024-0.001 0.048-0.001 0.072 0 1.019 0.829 1.848 1.848 1.848s1.848-0.829 1.848-1.848c0-0.937-0.712-1.722-1.623-1.834-2.217-0.358-11.267-0.796-11.267-0.796l-0.297-1.163h11.291c0.577 0 1.091-0.388 1.248-0.943l2.44-8.596h0.897c0.748 0 1.355-0.607 1.355-1.355s-0.606-1.355-1.355-1.355zM13.658 23.483h-2.117c-0.058-0.001-0.143 0.012-0.182-0.124-0.049-0.173-0.118-0.41-0.118-0.41l-1.659-5.843c-0.008-0.028-0.002-0.060 0.016-0.083s0.046-0.038 0.076-0.038h2.572c0.045 0 0.083 0.031 0.093 0.074l1.403 6.282 0.005 0.019c0.003 0.009 0.004 0.018 0.004 0.028 0 0.052-0.042 0.094-0.094 0.095zM19.060 17.1l-1.143 6.309c-0.010 0.044-0.048 0.074-0.093 0.074h-1.596c-0.045 0-0.083-0.031-0.093-0.074l-1.143-6.309c-0.006-0.028 0-0.057 0.019-0.080s0.045-0.036 0.074-0.036h3.883c0.029 0 0.056 0.013 0.074 0.036s0.025 0.052 0.019 0.080zM24.468 17.105l-1.791 6.309c-0.012 0.041-0.049 0.069-0.091 0.069h-2.19c-0.029 0-0.056-0.013-0.074-0.036s-0.025-0.052-0.019-0.080l1.409-6.309c0.010-0.043 0.049-0.074 0.093-0.074h2.572c0.030 0 0.058 0.014 0.076 0.038s0.024 0.055 0.016 0.083z"></path>
<path d="M16.869 12.384c0.262 0.453 0.938 0.452 1.199-0.001l3.31-4.976c0.133-0.231 0.121-0.525-0.032-0.744-0.145-0.207-0.369-0.295-0.615-0.294-0.243 0-0.485 0-0.728 0l-1.149 0.001v-4.982c0-0.767-0.622-1.389-1.389-1.389s-1.389 0.622-1.389 1.389v4.984l-1.926 0.001c-0.522 0-0.861 0.585-0.599 1.039l3.317 4.972z"></path>
</symbol>
<symbol id="icon-lines" viewBox="0 0 32 32">
<path stroke-linejoin="round" stroke-linecap="round" stroke-miterlimit="4" stroke-width="2" d="M28 13.333h-24"></path>
<path stroke-linejoin="round" stroke-linecap="round" stroke-miterlimit="4" stroke-width="2" d="M28 8h-24"></path>
<path stroke-linejoin="round" stroke-linecap="round" stroke-miterlimit="4" stroke-width="2" d="M28 18.667h-24"></path>
<path stroke-linejoin="round" stroke-linecap="round" stroke-miterlimit="4" stroke-width="2" d="M28 24h-24"></path>
</symbol>
</defs>
</svg>
