<svg aria-hidden="true" style="position: absolute; width: 0; height: 0; overflow: hidden;" version="1.1" xmlns="http://www.w3.org/2000/svg" xmlns:xlink="http://www.w3.org/1999/xlink">
<defs>
<symbol id="icon-shopping-cart" viewBox="0 0 32 32">
<path stroke-linejoin="round" stroke-linecap="round" stroke-miterlimit="4" stroke-width="2.6667" d="M12.008 29.352c0.737 0 1.334-0.597 1.334-1.334s-0.597-1.334-1.334-1.334v0c-0.737 0-1.334 0.597-1.334 1.334s0.597 1.334 1.334 1.334v0zM26.684 29.352c0.737 0 1.334-0.597 1.334-1.334s-0.597-1.334-1.334-1.334v0c-0.737 0-1.334 0.597-1.334 1.334s0.597 1.334 1.334 1.334v0z"></path>
<path stroke-linejoin="round" stroke-linecap="round" stroke-miterlimit="4" stroke-width="2.4" d="M1.334 1.334h5.337l3.576 17.865c0.251 1.233 1.328 2.149 2.617 2.149 0.018 0 0.036-0 0.054-0.001l-0.003 0h12.968c0.015 0 0.033 0 0.051 0 1.29 0 2.366-0.915 2.614-2.131l0.003-0.017 2.135-11.194h-22.681"></path>
</symbol>
<symbol id="icon-burger" viewBox="0 0 31 32">
<path stroke-linejoin="round" stroke-linecap="round" stroke-miterlimit="4" stroke-width="1.9394" d="M27.159 13.419h-23.281M27.159 8.245h-23.281M27.159 18.593h-23.281M27.159 23.766h-23.281"></path>
</symbol>

<symbol id="iconb" viewBox="0 0 32 32">
<path d="M0 2h32v4h-32zM0 8h32v4h-32zM0 14h32v4h-32zM0 20h32v4h-32zM0 26h32v4h-32z"></path>
</symbol>

<symbol id="icon-x" viewBox="0 0 32 32">
<path fill="none" stroke="#f8f8f8" style="stroke: var(--color1, #f8f8f8)" stroke-linejoin="round" stroke-linecap="round" stroke-miterlimit="4" stroke-width="2" d="M24 8l-16 16"></path>
<path fill="none" stroke="#f8f8f8" style="stroke: var(--color1, #f8f8f8)" stroke-linejoin="round" stroke-linecap="round" stroke-miterlimit="4" stroke-width="2" d="M8 8l16 16"></path>
</symbol>

<symbol id="icon-close" viewBox="0 0 32 32">
      <path d="M32 3.224l-3.224-3.224-12.776 12.776-12.776-12.776-3.224 3.224 12.776 12.776-12.776 12.776 3.224 3.224 12.776-12.776 12.776 12.776 3.224-3.224-12.776-12.776 12.776-12.776z"></path>
</symbol>


</defs>
</svg>
