<svg aria-hidden="true" style="position: absolute; width: 0; height: 0; overflow: hidden;" version="1.1" xmlns="http://www.w3.org/2000/svg" xmlns:xlink="http://www.w3.org/1999/xlink">
<defs>
<symbol id="icon-arrow-up" viewBox="0 0 32 32">
<path d="M9.776 10.246c-0.521 0.521-1.365 0.521-1.886 0s-0.521-1.365 0-1.886l6.221-6.221c1.041-1.041 2.73-1.041 3.771 0l6.225 6.225c0.521 0.521 0.521 1.365 0 1.886s-1.365 0.521-1.886 0l-4.888-4.888v23.971c0 0.736-0.597 1.333-1.333 1.333s-1.333-0.597-1.333-1.333v-23.978l-4.891 4.891z"></path>
</symbol>
<symbol id="icon-arrow-left" viewBox="0 0 32 32">
<path d="M18.776 23.63c-0.473 0.474-1.241 0.474-1.715 0l-5.926-5.932c-0.946-0.947-0.946-2.482 0.001-3.429l5.929-5.929c0.474-0.473 1.241-0.473 1.715 0s0.473 1.241 0 1.715l-5.075 5.075c-0.473 0.473-0.473 1.241 0 1.715l5.071 5.071c0.474 0.473 0.474 1.241 0 1.715z"></path>
</symbol>
<symbol id="icon-arrow-right" viewBox="0 0 32 32">
<path d="M13.224 23.63c0.473 0.474 1.241 0.474 1.715 0l5.926-5.932c0.946-0.947 0.946-2.482-0.001-3.429l-5.929-5.929c-0.474-0.473-1.241-0.473-1.715 0s-0.473 1.241 0 1.715l5.075 5.075c0.473 0.473 0.473 1.241 0 1.715l-5.071 5.071c-0.474 0.473-0.474 1.241 0 1.715z"></path>
</symbol>
<symbol id="icon-double-arrow-right" viewBox="0 0 32 32">
<path d="M16.391 9.724c0.241-0.241 0.575-0.39 0.943-0.39s0.701 0.149 0.943 0.39l5.333 5.333c0.241 0.241 0.39 0.575 0.39 0.943s-0.149 0.701-0.39 0.943l-5.333 5.333c-0.24 0.232-0.566 0.374-0.926 0.374-0.736 0-1.333-0.597-1.333-1.333 0-0.36 0.143-0.687 0.375-0.927l4.39-4.39-4.391-4.391c-0.241-0.241-0.39-0.575-0.39-0.943s0.149-0.701 0.39-0.943v0z"></path>
<path d="M8.391 9.724c0.241-0.241 0.575-0.39 0.943-0.39s0.701 0.149 0.943 0.39l5.333 5.333c0.241 0.241 0.39 0.575 0.39 0.943s-0.149 0.701-0.39 0.943l-5.333 5.333c-0.24 0.232-0.566 0.374-0.926 0.374-0.736 0-1.333-0.597-1.333-1.333 0-0.36 0.143-0.687 0.375-0.927l4.39-4.39-4.391-4.391c-0.241-0.241-0.39-0.575-0.39-0.943s0.149-0.701 0.39-0.943v0z"></path>
</symbol>
<symbol id="icon-double-arrow-left" viewBox="0 0 32 32">
<path d="M15.609 22.276c-0.241 0.241-0.575 0.39-0.943 0.39s-0.701-0.149-0.943-0.39l-5.333-5.333c-0.241-0.241-0.39-0.575-0.39-0.943s0.149-0.701 0.39-0.943l5.333-5.333c0.24-0.232 0.566-0.374 0.926-0.374 0.736 0 1.333 0.597 1.333 1.333 0 0.36-0.143 0.687-0.375 0.927l-4.39 4.39 4.391 4.391c0.241 0.241 0.39 0.575 0.39 0.943s-0.149 0.701-0.39 0.943v0z"></path>
<path d="M23.609 22.276c-0.241 0.241-0.575 0.39-0.943 0.39s-0.701-0.149-0.943-0.39l-5.333-5.333c-0.241-0.241-0.39-0.575-0.39-0.943s0.149-0.701 0.39-0.943l5.333-5.333c0.24-0.232 0.566-0.374 0.926-0.374 0.736 0 1.333 0.597 1.333 1.333 0 0.36-0.143 0.687-0.375 0.927l-4.39 4.39 4.391 4.391c0.241 0.241 0.39 0.575 0.39 0.943s-0.149 0.701-0.39 0.943v0z"></path>
</symbol>
<symbol id="icon-close" viewBox="0 0 32 32">
<path d="M27.661 4.438c-0.521-0.521-1.365-0.521-1.886 0l-9.726 9.726-9.726-9.726c-0.521-0.521-1.365-0.521-1.886 0s-0.521 1.365 0 1.886l9.726 9.726-9.726 9.726c-0.521 0.521-0.521 1.365 0 1.886s1.365 0.521 1.886 0l9.726-9.726 9.726 9.726c0.521 0.521 1.365 0.521 1.886 0s0.521-1.365 0-1.886l-9.726-9.726 9.726-9.726c0.521-0.521 0.521-1.365 0-1.886z"></path>
</symbol>
<symbol id="icon-basket" viewBox="0 0 32 32">
<path d="M28.040 14.111l-19.338-0.003-0.811-2.79c-0.121-0.416-0.456-0.745-0.874-0.858l-2.837-0.767c-0.107-0.029-0.217-0.043-0.327-0.043-0.563 0-1.059 0.38-1.206 0.924-0.087 0.322-0.043 0.659 0.123 0.949s0.435 0.497 0.757 0.584l2.159 0.584 4.382 15.807c-0.624 0.308-1.029 0.946-1.029 1.657 0 1.019 0.829 1.848 1.848 1.848s1.848-0.829 1.848-1.848c0-0.024-0-0.048-0.001-0.072h8.921c-0.001 0.024-0.001 0.048-0.001 0.072 0 1.019 0.829 1.848 1.848 1.848s1.848-0.829 1.848-1.848c0-0.937-0.712-1.722-1.623-1.834-2.217-0.358-11.267-0.796-11.267-0.796l-0.297-1.163h11.291c0.577 0 1.091-0.388 1.248-0.943l2.44-8.596h0.897c0.748 0 1.355-0.607 1.355-1.355s-0.606-1.355-1.355-1.355zM13.658 23.483h-2.117c-0.058-0.001-0.143 0.012-0.182-0.124-0.049-0.173-0.118-0.41-0.118-0.41l-1.659-5.843c-0.008-0.028-0.002-0.060 0.016-0.083s0.046-0.038 0.076-0.038h2.572c0.045 0 0.083 0.031 0.093 0.074l1.403 6.282 0.005 0.019c0.003 0.009 0.004 0.018 0.004 0.028 0 0.052-0.042 0.094-0.094 0.095zM19.060 17.1l-1.143 6.309c-0.010 0.044-0.048 0.074-0.093 0.074h-1.596c-0.045 0-0.083-0.031-0.093-0.074l-1.143-6.309c-0.006-0.028 0-0.057 0.019-0.080s0.045-0.036 0.074-0.036h3.883c0.029 0 0.056 0.013 0.074 0.036s0.025 0.052 0.019 0.080zM24.468 17.105l-1.791 6.309c-0.012 0.041-0.049 0.069-0.091 0.069h-2.19c-0.029 0-0.056-0.013-0.074-0.036s-0.025-0.052-0.019-0.080l1.409-6.309c0.010-0.043 0.049-0.074 0.093-0.074h2.572c0.030 0 0.058 0.014 0.076 0.038s0.024 0.055 0.016 0.083z"></path>
<path d="M16.869 12.384c0.262 0.453 0.938 0.452 1.199-0.001l3.31-4.976c0.133-0.231 0.121-0.525-0.032-0.744-0.145-0.207-0.369-0.295-0.615-0.294-0.243 0-0.485 0-0.728 0l-1.149 0.001v-4.982c0-0.767-0.622-1.389-1.389-1.389s-1.389 0.622-1.389 1.389v4.984l-1.926 0.001c-0.522 0-0.861 0.585-0.599 1.039l3.317 4.972z"></path>
</symbol>
<symbol id="icon-lines" viewBox="0 0 32 32">
<path stroke-linejoin="round" stroke-linecap="round" stroke-miterlimit="4" stroke-width="2" d="M28 13.333h-24"></path>
<path stroke-linejoin="round" stroke-linecap="round" stroke-miterlimit="4" stroke-width="2" d="M28 8h-24"></path>
<path stroke-linejoin="round" stroke-linecap="round" stroke-miterlimit="4" stroke-width="2" d="M28 18.667h-24"></path>
<path stroke-linejoin="round" stroke-linecap="round" stroke-miterlimit="4" stroke-width="2" d="M28 24h-24"></path>
</symbol>
<symbol id="arrow-up-short" viewBox="0 0 16 16">
<path fill-rule="evenodd" d="M8 12a.5.5 0 0 0 .5-.5V5.707l2.146 2.147a.5.5 0 0 0 .708-.708l-3-3a.5.5 0 0 0-.708 0l-3 3a.5.5 0 1 0 .708.708L7.5 5.707V11.5a.5.5 0 0 0 .5.5z" />
</symbol>
<symbol id="icon-linkedin" viewBox="0 0 32 32">
<path fill="#f4f4fd" style="fill: var(--color4, #f4f4fd)" d="M31.992 32h0.008v-11.74c0-5.74-1.236-10.164-7.948-10.164-3.226 0-5.392 1.772-6.276 3.45h-0.094v-2.912h-6.362v21.366h6.628v-10.58c0-2.784 0.528-5.476 3.976-5.476 3.4 0 3.45 3.178 3.45 5.656v10.4h6.62zM0.528 10.636h6.634v21.364h-6.634v-21.364zM3.842 0c-2.12 0-3.84 1.72-3.84 3.84s1.72 3.88 3.84 3.88c2.122 0 3.844-1.76 3.844-3.88s-1.726-3.84-3.846-3.84z"></path>
</symbol>
<symbol id="icon-youtube" viewBox="0 0 32 32">
<path fill="#f4f4fd" style="fill: var(--color4, #f4f4fd)" d="M31.681 9.6c0 0-0.313-2.206-1.275-3.175-1.219-1.275-2.581-1.281-3.206-1.356-4.475-0.325-11.194-0.325-11.194-0.325h-0.012c0 0-6.719 0-11.194 0.325-0.625 0.075-1.987 0.081-3.206 1.356-0.963 0.969-1.269 3.175-1.269 3.175s-0.319 2.588-0.319 5.181v2.425c0 2.587 0.319 5.181 0.319 5.181s0.313 2.206 1.269 3.175c1.219 1.275 2.819 1.231 3.531 1.369 2.563 0.244 10.881 0.319 10.881 0.319s6.725-0.012 11.2-0.331c0.625-0.075 1.988-0.081 3.206-1.356 0.962-0.969 1.275-3.175 1.275-3.175s0.319-2.587 0.319-5.181v-2.425c-0.006-2.588-0.325-5.181-0.325-5.181zM12.694 20.15v-8.994l8.644 4.513-8.644 4.481z"></path>
</symbol>
<symbol id="icon-facebook" viewBox="0 0 32 32">
<path fill="#f4f4fd" style="fill: var(--color4, #f4f4fd)" d="M21.33 5.314h2.92v-5.088c-1.238-0.144-2.672-0.226-4.125-0.226-0.046 0-0.092 0-0.138 0l0.007-0c-4.212 0-7.094 2.65-7.094 7.52v4.48h-4.65v5.688h4.648v14.312h5.698v-14.31h4.46l0.708-5.69h-5.17v-3.92c0.002-1.644 0.444-2.768 2.736-2.768z"></path>
</symbol>
<symbol id="icon-instagram" viewBox="0 0 32 32">
<path fill="#f4f4fd" style="fill: var(--color4, #f4f4fd)" d="M31.968 9.408c-0.074-1.7-0.35-2.87-0.744-3.882-0.424-1.112-1.053-2.060-1.849-2.839l-0.001-0.001c-0.78-0.791-1.724-1.417-2.778-1.824l-0.054-0.018c-1.020-0.394-2.18-0.67-3.88-0.744-1.716-0.080-2.262-0.1-6.602-0.1-4.346 0-4.89 0.020-6.596 0.094-1.7 0.074-2.868 0.35-3.88 0.744-1.112 0.424-2.060 1.053-2.839 1.849l-0.001 0.001c-0.792 0.78-1.419 1.724-1.826 2.778l-0.018 0.054c-0.394 1.020-0.668 2.18-0.744 3.88-0.080 1.714-0.1 2.26-0.1 6.602 0 4.346 0.020 4.89 0.094 6.596 0.074 1.7 0.35 2.87 0.744 3.882 0.406 1.076 1.038 2.038 1.85 2.838 0.8 0.812 1.77 1.444 2.832 1.844 1.020 0.394 2.18 0.67 3.882 0.744 1.706 0.076 2.25 0.094 6.596 0.094 4.344 0 4.888-0.020 6.594-0.094 1.7-0.074 2.87-0.35 3.882-0.744 2.157-0.85 3.832-2.525 4.663-4.627l0.019-0.055c0.394-1.020 0.67-2.18 0.744-3.882 0.076-1.706 0.094-2.25 0.094-6.596 0-4.344-0.006-4.888-0.080-6.594zM29.088 22.472c-0.070 1.564-0.332 2.408-0.552 2.97-0.551 1.4-1.638 2.488-3.002 3.027l-0.036 0.013c-0.562 0.218-1.412 0.48-2.968 0.548-1.688 0.076-2.194 0.094-6.464 0.094s-4.782-0.020-6.464-0.094c-1.564-0.068-2.408-0.33-2.97-0.55-0.721-0.269-1.335-0.676-1.837-1.193l-0.001-0.001c-0.516-0.504-0.923-1.118-1.183-1.804l-0.011-0.034c-0.22-0.562-0.48-1.412-0.55-2.968-0.074-1.688-0.094-2.196-0.094-6.464 0-4.27 0.020-4.782 0.094-6.464 0.070-1.564 0.332-2.408 0.55-2.97 0.256-0.694 0.664-1.324 1.2-1.838 0.52-0.532 1.144-0.938 1.84-1.194 0.56-0.22 1.412-0.48 2.968-0.55 1.688-0.074 2.194-0.094 6.464-0.094 4.276 0 4.78 0.020 6.464 0.094 1.562 0.070 2.406 0.332 2.968 0.55 0.694 0.256 1.326 0.662 1.84 1.194 0.53 0.52 0.936 1.144 1.192 1.84 0.22 0.56 0.482 1.41 0.55 2.968 0.076 1.688 0.094 2.194 0.094 6.464s-0.018 4.77-0.092 6.456z"></path>
<path fill="#f4f4fd" style="fill: var(--color4, #f4f4fd)" d="M16.060 7.782c-4.462 0.102-8.041 3.743-8.041 8.22s3.578 8.118 8.031 8.22l0.009 0c4.462-0.102 8.041-3.743 8.041-8.22s-3.578-8.118-8.031-8.22l-0.009-0zM16.060 21.336c-2.946 0-5.334-2.388-5.334-5.334s2.388-5.334 5.334-5.334v0c2.946 0 5.334 2.388 5.334 5.334s-2.388 5.334-5.334 5.334v0zM26.524 7.458c0 1.060-0.86 1.92-1.92 1.92s-1.92-0.86-1.92-1.92v0c0-1.060 0.86-1.92 1.92-1.92s1.92 0.86 1.92 1.92v0z"></path>
</symbol>
<symbol id="icon-favourites-chefs-hat" viewBox="0 0 38 32">
<path fill="#9bb537" style="fill: var(--color1, #9bb537)" d="M7.188 12.688h23.156v17.656h-23.156v-17.656z"></path>
<path fill="#9bb537" style="fill: var(--color1, #9bb537)" d="M16.563 11.594c0 4.574-3.708 8.281-8.281 8.281s-8.281-3.708-8.281-8.281v0c0-4.574 3.708-8.281 8.281-8.281s8.281 3.708 8.281 8.281v0z"></path>
<path fill="#9bb537" style="fill: var(--color1, #9bb537)" d="M27.031 8.281c0 4.574-3.708 8.281-8.281 8.281s-8.281-3.708-8.281-8.281v0c0-4.574 3.708-8.281 8.281-8.281s8.281 3.708 8.281 8.281v0z"></path>
<path fill="#9bb537" style="fill: var(--color1, #9bb537)" d="M37.531 11.594c0 4.574-3.708 8.281-8.281 8.281s-8.281-3.708-8.281-8.281v0c0-4.574 3.708-8.281 8.281-8.281s8.281 3.708 8.281 8.281v0z"></path>
<path fill="#f8f8f8" style="fill: var(--color2, #f8f8f8)" d="M14.344 10.469c0-0.594 0.375-1.094 0.844-1.094s0.813 0.5 0.813 1.094v5c0 0.594-0.375 1.094-0.813 1.094s-0.844-0.5-0.844-1.094v-5zM17.094 10.469c0-0.594 0.625-1.094 1.375-1.094s1.406 0.5 1.406 1.094v5c0 0.594-0.625 1.094-1.406 1.094s-1.375-0.5-1.375-1.094v-5zM20.969 10.469c0-0.594 0.5-1.094 1.094-1.094s1.125 0.5 1.125 1.094v5c0 0.594-0.5 1.094-1.125 1.094s-1.094-0.5-1.094-1.094v-5z"></path>
<path fill="#050505" style="fill: var(--color3, #050505)" d="M28.188 3.125l0.875-0.031c3.719 0 6.875 2.406 7.938 5.75l-0.875 0.031c-3.719 0-6.875-2.406-7.938-5.75z"></path>
</symbol>
</defs>
</svg>
