<?xml version="1.0" encoding="utf-8"?>
<!-- Svg Vector Icons : http://www.onlinewebfonts.com/icon -->
<!DOCTYPE svg PUBLIC "-//W3C//DTD SVG 1.1//EN" "http://www.w3.org/Graphics/SVG/1.1/DTD/svg11.dtd">
<svg version="1.1" xmlns="http://www.w3.org/2000/svg" xmlns:xlink="http://www.w3.org/1999/xlink" x="0px" y="0px" viewBox="0 0 256 256" enable-background="new 0 0 256 256" xml:space="preserve">
<metadata> Svg Vector Icons : http://www.onlinewebfonts.com/icon </metadata>
<g><g><g><path fill="#000000" d="M120,14.8c-6.3,1-10.8,2.5-16.6,5.3c-6.8,3.3-11.7,6.9-16.9,12.4l-3.9,4.2l-4.2-0.8c-24-4.9-47.7,5.9-60.7,27.8c-6,10-8.8,23.3-7.4,34.2c3.1,23.3,18.6,41.5,41.3,48.6c3,0.9,6,2.2,7.2,3c2.4,1.7,4.4,4.8,5.1,7.7c0.3,1.2,1.2,10.1,2.1,19.7c4.1,44,3.7,40.9,5,43.5c4.9,9.8,24.1,18.5,46,20.8c28,3,61-7.1,68-20.8c1.3-2.6,1.1-0.4,5-43.3c0.9-9.8,1.8-18.7,2.1-19.9c0.6-2.9,2.7-6,5.1-7.7c1.1-0.8,4.1-2.1,7.1-3c10.3-3.2,18.3-8.1,25.6-15.7c22.7-23.7,21.1-59.6-3.6-81.5c-13.7-12.2-31-16.9-48.7-13.3l-4.1,0.8l-4.3-4.5c-8.7-8.9-18.5-14.3-30.4-16.8C133.9,14.3,124.6,14,120,14.8z M140.7,23.9c10.5,2.8,19.7,9.2,26.4,18.1c1.7,2.2,3.3,4.1,3.6,4.1c0.3,0,1.8-0.4,3.2-0.9c6.6-2.3,16.6-3,23.8-1.7c20.1,3.6,35.6,19.1,39.4,39.2c0.9,4.7,0.9,13.5,0,18.2c-3.5,18.3-16.4,32.4-34.5,37.7c-5.1,1.5-6.5,2.2-9.5,4.4c-4,3-7,7.2-8.5,11.8c-0.4,1.4-1.6,10.9-2.8,23.9c-1.8,18.6-2.2,21.7-2.9,22.2c-1.7,1.2-11.6,5.4-17.5,7.4c-10.9,3.6-21.4,5.3-33.4,5.3c-12,0-22.7-1.7-33.5-5.3c-6-2-17.5-7-18-7.7c-0.1-0.2-1.2-10.1-2.3-22c-1.2-13-2.4-22.5-2.8-23.8c-1.4-4.5-4.6-8.9-8.5-11.8c-2.9-2.1-4.8-3-9.6-4.4c-8.1-2.4-15.2-6.5-21.1-12.4c-7.3-7.3-11.9-16.2-13.6-26.7c-0.9-5.4-0.4-15.7,1.1-20.6c4.6-16.2,16-28.2,31.6-33.5C61,42,73,42,82.2,45.1c1.4,0.5,2.9,0.9,3.2,0.9c0.3,0,1.9-1.8,3.5-4c7.6-10.3,19.1-17.3,31.6-19.2c0.8-0.1,4.8-0.2,9-0.1C135.4,22.9,137.8,23.1,140.7,23.9z M82.5,212.3c9.6,4.1,21.3,7.2,32.2,8.7c5.7,0.7,21.2,0.7,26.8,0c11-1.5,22.6-4.6,32.2-8.7c2.6-1.2,4.9-2,4.9-1.9c0.5,0.5-0.7,6.5-1.6,7.7c-4.1,5.7-20.2,12.3-35.8,14.6c-6.6,1-19.6,1-26.2,0c-17.1-2.5-34.9-10.3-36.6-16.1c-0.6-1.7-1.1-6.3-0.7-6.3C77.7,210.2,79.9,211.1,82.5,212.3z"/><path fill="#000000" d="M121.2,32.7c-5.9,1.2-14.4,5-16.5,7.5c-2.3,2.7-0.6,6.3,2.9,6.3c0.9,0,2.2-0.4,2.8-0.9c3.8-2.7,10.2-4.9,15.4-5.4c6.2-0.6,13.5,1.3,18.8,4.9c3.1,2.1,6,1.9,7.2-0.5c1.6-3.1,0.2-4.9-6.3-8.2c-6.4-3.2-10.7-4.2-17.2-4.2C125.5,32.3,122.3,32.4,121.2,32.7z"/><path fill="#000000" d="M68.1,55.2c-5,0.6-9.2,1.8-13.6,3.9c-6.8,3.2-11.1,6.9-15.5,13.4c-1.8,2.7-4.6,9.2-4.6,10.9c0,1.6,1.6,3.5,3.2,3.9c2.3,0.5,4-0.7,4.9-3.6c1.4-4.2,3.9-8.3,7.3-11.7c5.6-5.6,12.2-8.2,22-8.9c4.8-0.3,5.3-0.5,6.3-1.6c1.4-1.6,1.3-3.6,0-5.2c-0.9-1.1-1.4-1.3-4-1.4C72.4,54.9,69.7,55,68.1,55.2z"/><path fill="#000000" d="M84.6,153.9c-0.7,0.7-1.3,1.8-1.3,2.4c0,1.6,4.1,34,4.4,34.8c0.1,0.4,0.7,1,1.3,1.4c2.8,1.8,6.2,0,6.2-3.2c0-1.5-3.3-29.2-4-32.9C90.7,152.7,87.1,151.4,84.6,153.9z"/><path fill="#000000" d="M166.1,153.7c-0.6,0.6-1.2,1.8-1.3,2.6c-0.6,3.6-4,31.4-4,32.9c0,3.6,4.1,5.3,6.6,2.8c0.6-0.7,1.2-1.4,1.2-1.6c0-0.2,0.9-7.7,2.1-16.7c1.2-9,2.1-16.8,2.1-17.4s-0.6-1.7-1.3-2.4C169.7,152.2,167.7,152.1,166.1,153.7z"/><path fill="#000000" d="M113,162l-1.2,1.1v17.9V199l1.2,1.1c1.6,1.5,4,1.5,5.5,0l1.2-1.1v-17.9v-17.9l-1.2-1.1c-0.7-0.8-1.6-1.2-2.8-1.2C114.7,160.9,113.8,161.2,113,162z"/><path fill="#000000" d="M137.5,162l-1.2,1.1v17.9V199l1.2,1.1c1.7,1.6,4.2,1.5,5.6-0.2l1.1-1.2v-17.8v-17.8L143,162c-0.7-0.8-1.6-1.2-2.8-1.2C139.1,160.9,138.2,161.2,137.5,162z"/></g></g></g>
</svg>